<svg xmlns="http://www.w3.org/2000/svg" viewBox="0 0 192 192" width="192" height="192">
  <rect width="192" height="192" rx="24" fill="#05050a"/>
  <!-- left dot -->
  <circle cx="68" cy="96" r="24" fill="#00e8ff" opacity="0.2"/>
  <circle cx="68" cy="96" r="16" fill="#00e8ff" opacity="0.4"/>
  <circle cx="68" cy="96" r="10" fill="#00e8ff"/>
  <!-- right dot -->
  <circle cx="124" cy="96" r="24" fill="#ff0099" opacity="0.2"/>
  <circle cx="124" cy="96" r="16" fill="#ff0099" opacity="0.4"/>
  <circle cx="124" cy="96" r="10" fill="#ff0099"/>
  <!-- divider -->
  <line x1="96" y1="32" x2="96" y2="160" stroke="#1a1a2e" stroke-width="1.5" opacity="0.5"/>
  <!-- gate bars top -->
  <rect x="52" y="48" width="3" height="20" rx="1" fill="#00e8ff" opacity="0.6"/>
  <rect x="84" y="48" width="3" height="20" rx="1" fill="#00e8ff" opacity="0.6"/>
  <rect x="108" y="48" width="3" height="20" rx="1" fill="#ff0099" opacity="0.6"/>
  <rect x="140" y="48" width="3" height="20" rx="1" fill="#ff0099" opacity="0.6"/>
  <!-- gate bars bottom -->
  <rect x="44" y="128" width="3" height="20" rx="1" fill="#00e8ff" opacity="0.6"/>
  <rect x="76" y="128" width="3" height="20" rx="1" fill="#00e8ff" opacity="0.6"/>
  <rect x="116" y="128" width="3" height="20" rx="1" fill="#ff0099" opacity="0.6"/>
  <rect x="148" y="128" width="3" height="20" rx="1" fill="#ff0099" opacity="0.6"/>
</svg>
